<svg xmlns="http://www.w3.org/2000/svg" xmlns:xlink="http://www.w3.org/1999/xlink" width="500" zoomAndPan="magnify" viewBox="0 0 375 374.999991" height="500" preserveAspectRatio="xMidYMid meet" version="1.2"><defs><clipPath id="170ff3d18b"><path d="M 2.539062 50.773438 L 103.542969 50.773438 L 103.542969 375 L 2.539062 375 Z M 2.539062 50.773438 "/></clipPath><clipPath id="0759325f01"><path d="M 0 0 L 177 0 L 177 247 L 0 247 Z M 0 0 "/></clipPath><clipPath id="a303c631c8"><path d="M 103.773438 -37.421875 L 176.851562 71.265625 L -83.273438 246.160156 L -156.347656 137.472656 Z M 103.773438 -37.421875 "/></clipPath><clipPath id="087eca4b46"><path d="M 275.65625 50.773438 L 375 50.773438 L 375 375 L 275.65625 375 Z M 275.65625 50.773438 "/></clipPath><clipPath id="d77bd51ccb"><path d="M 143 0 L 375 0 L 375 213 L 143 213 Z M 143 0 "/></clipPath><clipPath id="cafd0f00dc"><path d="M 489.191406 105.210938 L 421.097656 212.886719 L 143.386719 37.265625 L 211.476562 -70.40625 Z M 489.191406 105.210938 "/></clipPath><clipPath id="219fc7e6ca"><path d="M 139.050781 0 L 248.589844 0 L 248.589844 375 L 139.050781 375 Z M 139.050781 0 "/></clipPath><clipPath id="21afbdadda"><path d="M 139.050781 54.765625 L 139.050781 375 L 248.589844 375 L 248.589844 54.765625 L 193.820312 0 Z M 139.050781 54.765625 "/></clipPath><clipPath id="f48d3b20fe"><path d="M 7 266.175781 L 98 266.175781 L 98 362.925781 L 7 362.925781 Z M 7 266.175781 "/></clipPath><clipPath id="4bcc9effd7"><path d="M 279.773438 299 L 372.773438 299 L 372.773438 358 L 279.773438 358 Z M 279.773438 299 "/></clipPath></defs><g id="b7b4c5fc90"><rect x="0" width="375" y="0" height="374.999991" style="fill:#ffffff;fill-opacity:1;stroke:none;"/><rect x="0" width="375" y="0" height="374.999991" style="fill:#ffffff;fill-opacity:1;stroke:none;"/><g clip-rule="nonzero" clip-path="url(#170ff3d18b)"><path style=" stroke:none;fill-rule:nonzero;fill:#fd5722;fill-opacity:1;" d="M 2.539062 50.773438 L 103.542969 50.773438 L 103.542969 375.089844 L 2.539062 375.089844 Z M 2.539062 50.773438 "/></g><g clip-rule="nonzero" clip-path="url(#0759325f01)"><g clip-rule="nonzero" clip-path="url(#a303c631c8)"><path style=" stroke:none;fill-rule:nonzero;fill:#ffffff;fill-opacity:1;" d="M 103.773438 -37.421875 L 176.851562 71.265625 L -83.398438 246.242188 L -156.476562 137.558594 Z M 103.773438 -37.421875 "/></g></g><g clip-rule="nonzero" clip-path="url(#087eca4b46)"><path style=" stroke:none;fill-rule:nonzero;fill:#f9be24;fill-opacity:1;" d="M 275.65625 50.773438 L 376.660156 50.773438 L 376.660156 375.089844 L 275.65625 375.089844 Z M 275.65625 50.773438 "/></g><g clip-rule="nonzero" clip-path="url(#d77bd51ccb)"><g clip-rule="nonzero" clip-path="url(#cafd0f00dc)"><path style=" stroke:none;fill-rule:nonzero;fill:#ffffff;fill-opacity:1;" d="M 489.191406 105.210938 L 421.097656 212.886719 L 143.5 37.339844 L 211.59375 -70.335938 Z M 489.191406 105.210938 "/></g></g><g clip-rule="nonzero" clip-path="url(#219fc7e6ca)"><g clip-rule="nonzero" clip-path="url(#21afbdadda)"><path style=" stroke:none;fill-rule:nonzero;fill:#4142c8;fill-opacity:1;" d="M 139.050781 375 L 139.050781 0.171875 L 248.589844 0.171875 L 248.589844 375 Z M 139.050781 375 "/></g></g><g clip-rule="nonzero" clip-path="url(#f48d3b20fe)"><path style=" stroke:none;fill-rule:nonzero;fill:#ffffff;fill-opacity:1;" d="M 20.625 287.285156 L 20.625 354.070312 C 20.625 354.117188 20.625 354.164062 20.617188 354.203125 L 38.71875 354.203125 L 38.71875 347.222656 L 67.617188 347.222656 L 67.617188 354.203125 L 83.976562 354.203125 C 83.976562 354.164062 83.96875 354.132812 83.96875 354.09375 L 83.96875 287.285156 L 78.796875 287.285156 L 78.796875 295.5 L 61.953125 295.5 L 61.953125 305.171875 C 61.953125 305.5625 61.636719 305.878906 61.246094 305.878906 L 57.910156 305.878906 L 57.910156 310.246094 L 54.832031 310.246094 L 54.832031 305.878906 L 51.324219 305.878906 L 51.324219 310.246094 L 48.246094 310.246094 L 48.246094 305.878906 L 44.902344 305.878906 C 44.511719 305.878906 44.195312 305.5625 44.195312 305.171875 L 44.195312 295.5 L 27.53125 295.5 L 27.53125 287.285156 Z M 38.253906 317.523438 L 68.292969 317.523438 C 68.859375 317.523438 69.378906 317.757812 69.757812 318.128906 C 70.136719 318.507812 70.363281 319.023438 70.363281 319.589844 L 70.363281 320.527344 L 74.785156 320.527344 C 75.808594 320.527344 76.738281 320.945312 77.40625 321.613281 C 77.429688 321.636719 77.460938 321.667969 77.484375 321.699219 C 78.113281 322.367188 78.5 323.257812 78.5 324.234375 L 78.5 328.570312 C 78.5 329.734375 78.019531 330.796875 77.257812 331.566406 C 76.484375 332.335938 75.429688 332.808594 74.257812 332.808594 L 69.457031 332.808594 C 67.847656 337.640625 64.25 340.96875 59.992188 342.699219 C 57.800781 343.597656 55.414062 344.054688 53.03125 344.070312 C 50.648438 344.085938 48.269531 343.644531 46.089844 342.738281 C 40.503906 340.433594 36.179688 335.144531 36.179688 326.65625 L 36.179688 319.589844 C 36.179688 319.023438 36.414062 318.507812 36.785156 318.128906 C 37.160156 317.757812 37.679688 317.523438 38.253906 317.523438 Z M 74.785156 323 L 70.441406 323 L 70.441406 330.363281 L 74.257812 330.363281 C 74.746094 330.363281 75.195312 330.160156 75.515625 329.835938 C 75.839844 329.511719 76.042969 329.066406 76.042969 328.578125 L 76.042969 324.242188 C 76.042969 323.917969 75.925781 323.628906 75.722656 323.40625 C 75.707031 323.390625 75.691406 323.375 75.675781 323.359375 C 75.4375 323.140625 75.132812 323 74.785156 323 Z M 67.910156 319.984375 L 38.632812 319.984375 L 38.632812 326.671875 C 38.632812 334.003906 42.292969 338.539062 47.019531 340.488281 C 48.898438 341.269531 50.960938 341.644531 53.023438 341.628906 C 55.085938 341.621094 57.152344 341.210938 59.074219 340.433594 C 64.015625 338.425781 67.917969 333.863281 67.917969 326.980469 L 67.917969 319.984375 Z M 17.988281 354.210938 C 17.980469 354.164062 17.980469 354.125 17.980469 354.078125 L 17.980469 287.285156 L 8.230469 287.285156 C 7.554688 287.285156 7.003906 286.734375 7.003906 286.058594 L 7.003906 267.40625 C 7.003906 266.726562 7.554688 266.175781 8.230469 266.175781 L 96.671875 266.175781 C 97.351562 266.175781 97.902344 266.726562 97.902344 267.40625 L 97.902344 286.058594 C 97.902344 286.734375 97.351562 287.285156 96.671875 287.285156 L 86.625 287.285156 L 86.625 354.101562 C 86.625 354.140625 86.625 354.171875 86.617188 354.210938 L 96.671875 354.210938 L 96.671875 362.855469 L 8.230469 362.855469 L 8.230469 354.210938 Z M 43.394531 271.210938 L 63.09375 271.210938 C 63.441406 271.210938 63.722656 271.519531 63.722656 271.90625 L 63.722656 281.363281 C 63.722656 281.746094 63.441406 282.054688 63.09375 282.054688 L 43.394531 282.054688 C 43.046875 282.054688 42.761719 281.746094 42.761719 281.363281 L 42.761719 271.90625 C 42.761719 271.519531 43.046875 271.210938 43.394531 271.210938 Z M 60.535156 296.214844 L 45.613281 296.214844 L 45.613281 304.460938 L 60.542969 304.460938 L 60.542969 296.214844 Z M 95.257812 268.820312 L 9.648438 268.820312 L 9.648438 284.636719 L 95.257812 284.636719 Z M 95.257812 268.820312 "/></g><path style=" stroke:none;fill-rule:nonzero;fill:#ffffff;fill-opacity:1;" d="M 142.65625 349.351562 L 191.648438 349.351562 L 191.648438 355.742188 L 166.085938 355.742188 L 166.085938 360.003906 L 221.464844 360.003906 L 221.464844 355.742188 L 195.90625 355.742188 L 195.90625 349.351562 L 244.898438 349.351562 L 244.898438 285.453125 L 142.65625 285.453125 Z M 146.917969 289.714844 L 240.636719 289.714844 L 240.636719 345.09375 L 146.917969 345.09375 Z M 146.917969 289.714844 "/><g clip-rule="nonzero" clip-path="url(#4bcc9effd7)"><path style=" stroke:none;fill-rule:nonzero;fill:#ffffff;fill-opacity:1;" d="M 279.773438 299.742188 L 279.773438 357.484375 L 372.539062 357.484375 L 372.539062 299.742188 Z M 350.769531 354.644531 L 282.613281 354.644531 L 282.613281 347.828125 L 350.765625 347.828125 L 350.765625 354.644531 Z M 350.769531 344.988281 L 282.613281 344.988281 L 282.613281 308.449219 L 319.332031 308.449219 L 301.675781 326.105469 L 303.683594 328.113281 L 323.347656 308.449219 L 329.179688 308.449219 L 311.523438 326.105469 L 313.53125 328.113281 L 333.195312 308.449219 L 350.769531 308.449219 Z M 350.769531 305.609375 L 282.613281 305.609375 L 282.613281 302.582031 L 350.765625 302.582031 L 350.765625 305.609375 Z M 369.699219 354.453125 L 353.605469 354.453125 L 353.605469 302.769531 L 369.699219 302.769531 Z M 369.699219 354.453125 "/></g><path style=" stroke:none;fill-rule:nonzero;fill:#ffffff;fill-opacity:1;" d="M 355.5 305.609375 L 355.5 317.914062 L 367.804688 317.914062 L 367.804688 305.609375 Z M 364.964844 315.078125 L 358.339844 315.078125 L 358.339844 308.449219 L 364.964844 308.449219 Z M 364.964844 315.078125 "/><path style=" stroke:none;fill-rule:nonzero;fill:#ffffff;fill-opacity:1;" d="M 356.921875 326.433594 L 359.761719 326.433594 L 359.761719 329.273438 L 356.921875 329.273438 Z M 356.921875 326.433594 "/><path style=" stroke:none;fill-rule:nonzero;fill:#ffffff;fill-opacity:1;" d="M 363.546875 326.433594 L 366.386719 326.433594 L 366.386719 329.273438 L 363.546875 329.273438 Z M 363.546875 326.433594 "/><path style=" stroke:none;fill-rule:nonzero;fill:#ffffff;fill-opacity:1;" d="M 356.921875 320.753906 L 359.761719 320.753906 L 359.761719 323.59375 L 356.921875 323.59375 Z M 356.921875 320.753906 "/><path style=" stroke:none;fill-rule:nonzero;fill:#ffffff;fill-opacity:1;" d="M 363.546875 320.753906 L 366.386719 320.753906 L 366.386719 323.59375 L 363.546875 323.59375 Z M 363.546875 320.753906 "/><path style=" stroke:none;fill-rule:nonzero;fill:#ffffff;fill-opacity:1;" d="M 356.921875 332.113281 L 359.761719 332.113281 L 359.761719 334.953125 L 356.921875 334.953125 Z M 356.921875 332.113281 "/><path style=" stroke:none;fill-rule:nonzero;fill:#ffffff;fill-opacity:1;" d="M 363.546875 332.113281 L 366.386719 332.113281 L 366.386719 334.953125 L 363.546875 334.953125 Z M 363.546875 332.113281 "/><path style=" stroke:none;fill-rule:nonzero;fill:#ffffff;fill-opacity:1;" d="M 361.652344 340.445312 C 358.574219 340.445312 356.070312 342.949219 356.070312 346.03125 C 356.070312 349.109375 358.574219 351.613281 361.652344 351.613281 C 364.734375 351.613281 367.238281 349.109375 367.238281 346.03125 C 367.238281 342.949219 364.734375 340.445312 361.652344 340.445312 Z M 361.652344 348.773438 C 360.140625 348.773438 358.910156 347.542969 358.910156 346.03125 C 358.910156 344.515625 360.140625 343.285156 361.652344 343.285156 C 363.167969 343.285156 364.398438 344.515625 364.398438 346.03125 C 364.398438 347.542969 363.167969 348.773438 361.652344 348.773438 Z M 361.652344 348.773438 "/></g></svg>